<svg xmlns="http://www.w3.org/2000/svg" viewBox="0 0 64 80" x="0px" y="0px"><g><path d="M38,44H26a1,1,0,0,0-1,1V57a1,1,0,0,0,1,1H38a1,1,0,0,0,1-1V45A1,1,0,0,0,38,44ZM29,56H27V54h2Zm0-4H27V50h2Zm0-4H27V46h2Zm4,8H31V54h2Zm0-4H31V50h2Zm0-4H31V46h2Zm4,8H35V54h2Zm0-4H35V50h2Zm0-4H35V46h2Z"/><path d="M38,34H26a1,1,0,0,0-1,1v6a1,1,0,0,0,1,1H38a1,1,0,0,0,1-1V35A1,1,0,0,0,38,34Zm-1,6H27V36H37Z"/><rect x="23" y="30" width="18" height="2"/><rect x="23" y="26" width="18" height="2"/><path d="M16,38h3v1a1,1,0,0,0,.105.447L21,43.236V59a3,3,0,0,0,3,3H40a3,3,0,0,0,3-3V43.236l1.9-3.789A1,1,0,0,0,45,39V34h3a1,1,0,0,0,1-1V25a1,1,0,0,0-1-1H45V23a1,1,0,0,0-.1-.447L43,18.764V15a1,1,0,0,0-1-1H41V11a3,3,0,0,0-6,0v3H34a1,1,0,0,0-1,1v3H31V15a1,1,0,0,0-1-1H29V3a1,1,0,0,0-1-1H24a1,1,0,0,0-1,1V14H22a1,1,0,0,0-1,1v3.764l-1.895,3.789A1,1,0,0,0,19,23v1H16a1,1,0,0,0-1,1v4a1,1,0,0,0,1,1h3v2H16a1,1,0,0,0-1,1v4A1,1,0,0,0,16,38ZM45,26h2v6H45ZM37,11a1,1,0,0,1,2,0v3H37Zm-2,5h6v2H35Zm2,4v2H27V20ZM25,4h2V14H25ZM23,16h6v2H23Zm-2,7.236L22.618,20H25v3a1,1,0,0,0,1,1H38a1,1,0,0,0,1-1V20h2.382L43,23.236V38.764l-1.9,3.789A1,1,0,0,0,41,43V59a1,1,0,0,1-1,1H24a1,1,0,0,1-1-1V43a1,1,0,0,0-.105-.447L21,38.764ZM17,28V26h2v2Zm0,6h2v2H17Z"/></g></svg>